<mxfile host="app.diagrams.net" agent="Mozilla/5.0 (Windows NT 10.0; Win64; x64) AppleWebKit/537.36 (KHTML, like Gecko) Chrome/131.0.0.0 Safari/537.36" version="24.8.6">
  <diagram id="ECDqyt5mdJJTsMTR0mbU" name="Страница — 1">
    <mxGraphModel dx="865" dy="3742" grid="1" gridSize="10" guides="1" tooltips="1" connect="1" arrows="1" fold="1" page="1" pageScale="1" pageWidth="2339" pageHeight="3300" math="0" shadow="0">
      <root>
        <mxCell id="0" />
        <mxCell id="1" parent="0" />
        <mxCell id="61yUi6WZkmLRr9ikkD7M-2" style="edgeStyle=orthogonalEdgeStyle;rounded=0;orthogonalLoop=1;jettySize=auto;html=1;" edge="1" parent="1" source="61yUi6WZkmLRr9ikkD7M-1" target="61yUi6WZkmLRr9ikkD7M-3">
          <mxGeometry relative="1" as="geometry">
            <mxPoint x="420" y="-3140" as="targetPoint" />
          </mxGeometry>
        </mxCell>
        <mxCell id="61yUi6WZkmLRr9ikkD7M-1" value="Start" style="ellipse;whiteSpace=wrap;html=1;" vertex="1" parent="1">
          <mxGeometry x="360" y="-3210" width="120" height="40" as="geometry" />
        </mxCell>
        <mxCell id="61yUi6WZkmLRr9ikkD7M-4" style="edgeStyle=orthogonalEdgeStyle;rounded=0;orthogonalLoop=1;jettySize=auto;html=1;" edge="1" parent="1" source="61yUi6WZkmLRr9ikkD7M-3" target="61yUi6WZkmLRr9ikkD7M-5">
          <mxGeometry relative="1" as="geometry">
            <mxPoint x="420" y="-3060" as="targetPoint" />
          </mxGeometry>
        </mxCell>
        <mxCell id="61yUi6WZkmLRr9ikkD7M-3" value="int n, m;" style="rounded=0;whiteSpace=wrap;html=1;" vertex="1" parent="1">
          <mxGeometry x="360" y="-3150" width="120" height="30" as="geometry" />
        </mxCell>
        <mxCell id="61yUi6WZkmLRr9ikkD7M-6" style="edgeStyle=orthogonalEdgeStyle;rounded=0;orthogonalLoop=1;jettySize=auto;html=1;" edge="1" parent="1" source="61yUi6WZkmLRr9ikkD7M-5" target="61yUi6WZkmLRr9ikkD7M-7">
          <mxGeometry relative="1" as="geometry">
            <mxPoint x="420" y="-3050" as="targetPoint" />
          </mxGeometry>
        </mxCell>
        <mxCell id="61yUi6WZkmLRr9ikkD7M-5" value="cin &amp;gt;&amp;gt; n &amp;gt;&amp;gt; m;" style="shape=parallelogram;perimeter=parallelogramPerimeter;whiteSpace=wrap;html=1;fixedSize=1;" vertex="1" parent="1">
          <mxGeometry x="360" y="-3100" width="120" height="30" as="geometry" />
        </mxCell>
        <mxCell id="61yUi6WZkmLRr9ikkD7M-8" style="edgeStyle=orthogonalEdgeStyle;rounded=0;orthogonalLoop=1;jettySize=auto;html=1;" edge="1" parent="1" source="61yUi6WZkmLRr9ikkD7M-7" target="61yUi6WZkmLRr9ikkD7M-9">
          <mxGeometry relative="1" as="geometry">
            <mxPoint x="420" y="-2990" as="targetPoint" />
          </mxGeometry>
        </mxCell>
        <mxCell id="61yUi6WZkmLRr9ikkD7M-7" value="&amp;nbsp;string* all_drinks = new string[n + m]" style="rounded=0;whiteSpace=wrap;html=1;" vertex="1" parent="1">
          <mxGeometry x="360" y="-3050" width="120" height="40" as="geometry" />
        </mxCell>
        <mxCell id="61yUi6WZkmLRr9ikkD7M-10" style="edgeStyle=orthogonalEdgeStyle;rounded=0;orthogonalLoop=1;jettySize=auto;html=1;" edge="1" parent="1" source="61yUi6WZkmLRr9ikkD7M-9" target="61yUi6WZkmLRr9ikkD7M-15">
          <mxGeometry relative="1" as="geometry">
            <mxPoint x="420" y="-2940" as="targetPoint" />
          </mxGeometry>
        </mxCell>
        <mxCell id="61yUi6WZkmLRr9ikkD7M-9" value="&lt;div&gt;string drink;&lt;/div&gt;&lt;div&gt;&amp;nbsp; &amp;nbsp; int count = 0;&lt;/div&gt;" style="rounded=0;whiteSpace=wrap;html=1;" vertex="1" parent="1">
          <mxGeometry x="360" y="-2990" width="120" height="30" as="geometry" />
        </mxCell>
        <mxCell id="61yUi6WZkmLRr9ikkD7M-16" style="edgeStyle=orthogonalEdgeStyle;rounded=0;orthogonalLoop=1;jettySize=auto;html=1;" edge="1" parent="1" source="61yUi6WZkmLRr9ikkD7M-15" target="61yUi6WZkmLRr9ikkD7M-17">
          <mxGeometry relative="1" as="geometry">
            <mxPoint x="420" y="-2890" as="targetPoint" />
          </mxGeometry>
        </mxCell>
        <mxCell id="61yUi6WZkmLRr9ikkD7M-15" value="int i = 0" style="rounded=0;whiteSpace=wrap;html=1;" vertex="1" parent="1">
          <mxGeometry x="375" y="-2940" width="90" height="30" as="geometry" />
        </mxCell>
        <mxCell id="61yUi6WZkmLRr9ikkD7M-18" style="edgeStyle=orthogonalEdgeStyle;rounded=0;orthogonalLoop=1;jettySize=auto;html=1;exitX=0;exitY=0.5;exitDx=0;exitDy=0;" edge="1" parent="1" source="61yUi6WZkmLRr9ikkD7M-17" target="61yUi6WZkmLRr9ikkD7M-19">
          <mxGeometry relative="1" as="geometry">
            <mxPoint x="360" y="-2830" as="targetPoint" />
          </mxGeometry>
        </mxCell>
        <mxCell id="61yUi6WZkmLRr9ikkD7M-25" value="True" style="edgeLabel;html=1;align=center;verticalAlign=middle;resizable=0;points=[];" vertex="1" connectable="0" parent="61yUi6WZkmLRr9ikkD7M-18">
          <mxGeometry x="-0.62" y="-2" relative="1" as="geometry">
            <mxPoint x="-1" y="2" as="offset" />
          </mxGeometry>
        </mxCell>
        <mxCell id="61yUi6WZkmLRr9ikkD7M-26" style="edgeStyle=orthogonalEdgeStyle;rounded=0;orthogonalLoop=1;jettySize=auto;html=1;entryX=0.5;entryY=0;entryDx=0;entryDy=0;" edge="1" parent="1" source="61yUi6WZkmLRr9ikkD7M-17" target="61yUi6WZkmLRr9ikkD7M-29">
          <mxGeometry relative="1" as="geometry">
            <mxPoint x="520" y="-2840" as="targetPoint" />
          </mxGeometry>
        </mxCell>
        <mxCell id="61yUi6WZkmLRr9ikkD7M-42" value="False" style="edgeLabel;html=1;align=center;verticalAlign=middle;resizable=0;points=[];" vertex="1" connectable="0" parent="61yUi6WZkmLRr9ikkD7M-26">
          <mxGeometry x="-0.5067" y="-3" relative="1" as="geometry">
            <mxPoint as="offset" />
          </mxGeometry>
        </mxCell>
        <mxCell id="61yUi6WZkmLRr9ikkD7M-17" value="i &amp;lt; n" style="rhombus;whiteSpace=wrap;html=1;" vertex="1" parent="1">
          <mxGeometry x="380" y="-2890" width="80" height="40" as="geometry" />
        </mxCell>
        <mxCell id="61yUi6WZkmLRr9ikkD7M-20" style="edgeStyle=orthogonalEdgeStyle;rounded=0;orthogonalLoop=1;jettySize=auto;html=1;" edge="1" parent="1" source="61yUi6WZkmLRr9ikkD7M-19" target="61yUi6WZkmLRr9ikkD7M-21">
          <mxGeometry relative="1" as="geometry">
            <mxPoint x="350" y="-2800" as="targetPoint" />
          </mxGeometry>
        </mxCell>
        <mxCell id="61yUi6WZkmLRr9ikkD7M-19" value="&amp;nbsp;cin &amp;gt;&amp;gt; drink;" style="shape=parallelogram;perimeter=parallelogramPerimeter;whiteSpace=wrap;html=1;fixedSize=1;" vertex="1" parent="1">
          <mxGeometry x="300" y="-2850" width="100" height="30" as="geometry" />
        </mxCell>
        <mxCell id="61yUi6WZkmLRr9ikkD7M-22" style="edgeStyle=orthogonalEdgeStyle;rounded=0;orthogonalLoop=1;jettySize=auto;html=1;" edge="1" parent="1" source="61yUi6WZkmLRr9ikkD7M-21" target="61yUi6WZkmLRr9ikkD7M-23">
          <mxGeometry relative="1" as="geometry">
            <mxPoint x="350" y="-2750" as="targetPoint" />
          </mxGeometry>
        </mxCell>
        <mxCell id="61yUi6WZkmLRr9ikkD7M-21" value="all_drinks[count++] = drink" style="rounded=0;whiteSpace=wrap;html=1;" vertex="1" parent="1">
          <mxGeometry x="290" y="-2800" width="120" height="30" as="geometry" />
        </mxCell>
        <mxCell id="61yUi6WZkmLRr9ikkD7M-24" style="edgeStyle=orthogonalEdgeStyle;rounded=0;orthogonalLoop=1;jettySize=auto;html=1;" edge="1" parent="1" source="61yUi6WZkmLRr9ikkD7M-23">
          <mxGeometry relative="1" as="geometry">
            <mxPoint x="420" y="-2900" as="targetPoint" />
            <Array as="points">
              <mxPoint x="270" y="-2735" />
              <mxPoint x="270" y="-2900" />
            </Array>
          </mxGeometry>
        </mxCell>
        <mxCell id="61yUi6WZkmLRr9ikkD7M-23" value="i++" style="rounded=0;whiteSpace=wrap;html=1;" vertex="1" parent="1">
          <mxGeometry x="310" y="-2750" width="80" height="30" as="geometry" />
        </mxCell>
        <mxCell id="61yUi6WZkmLRr9ikkD7M-28" style="edgeStyle=orthogonalEdgeStyle;rounded=0;orthogonalLoop=1;jettySize=auto;html=1;" edge="1" parent="1" source="61yUi6WZkmLRr9ikkD7M-29" target="61yUi6WZkmLRr9ikkD7M-33">
          <mxGeometry relative="1" as="geometry">
            <mxPoint x="570" y="-2780" as="targetPoint" />
          </mxGeometry>
        </mxCell>
        <mxCell id="61yUi6WZkmLRr9ikkD7M-29" value="int i = 0" style="rounded=0;whiteSpace=wrap;html=1;" vertex="1" parent="1">
          <mxGeometry x="525" y="-2830" width="90" height="30" as="geometry" />
        </mxCell>
        <mxCell id="61yUi6WZkmLRr9ikkD7M-30" style="edgeStyle=orthogonalEdgeStyle;rounded=0;orthogonalLoop=1;jettySize=auto;html=1;exitX=0;exitY=0.5;exitDx=0;exitDy=0;" edge="1" parent="1" source="61yUi6WZkmLRr9ikkD7M-33" target="61yUi6WZkmLRr9ikkD7M-35">
          <mxGeometry relative="1" as="geometry">
            <mxPoint x="510" y="-2720" as="targetPoint" />
          </mxGeometry>
        </mxCell>
        <mxCell id="61yUi6WZkmLRr9ikkD7M-31" value="True" style="edgeLabel;html=1;align=center;verticalAlign=middle;resizable=0;points=[];" vertex="1" connectable="0" parent="61yUi6WZkmLRr9ikkD7M-30">
          <mxGeometry x="-0.62" y="-2" relative="1" as="geometry">
            <mxPoint x="-1" y="2" as="offset" />
          </mxGeometry>
        </mxCell>
        <mxCell id="61yUi6WZkmLRr9ikkD7M-32" style="edgeStyle=orthogonalEdgeStyle;rounded=0;orthogonalLoop=1;jettySize=auto;html=1;exitX=1;exitY=0.5;exitDx=0;exitDy=0;" edge="1" parent="1" source="61yUi6WZkmLRr9ikkD7M-33" target="61yUi6WZkmLRr9ikkD7M-41">
          <mxGeometry relative="1" as="geometry">
            <mxPoint x="670" y="-2700" as="targetPoint" />
          </mxGeometry>
        </mxCell>
        <mxCell id="61yUi6WZkmLRr9ikkD7M-43" value="False" style="edgeLabel;html=1;align=center;verticalAlign=middle;resizable=0;points=[];" vertex="1" connectable="0" parent="61yUi6WZkmLRr9ikkD7M-32">
          <mxGeometry x="-0.2211" y="-3" relative="1" as="geometry">
            <mxPoint as="offset" />
          </mxGeometry>
        </mxCell>
        <mxCell id="61yUi6WZkmLRr9ikkD7M-33" value="i &amp;lt; n" style="rhombus;whiteSpace=wrap;html=1;" vertex="1" parent="1">
          <mxGeometry x="530" y="-2780" width="80" height="40" as="geometry" />
        </mxCell>
        <mxCell id="61yUi6WZkmLRr9ikkD7M-34" style="edgeStyle=orthogonalEdgeStyle;rounded=0;orthogonalLoop=1;jettySize=auto;html=1;" edge="1" parent="1" source="61yUi6WZkmLRr9ikkD7M-35" target="61yUi6WZkmLRr9ikkD7M-37">
          <mxGeometry relative="1" as="geometry">
            <mxPoint x="500" y="-2690" as="targetPoint" />
          </mxGeometry>
        </mxCell>
        <mxCell id="61yUi6WZkmLRr9ikkD7M-35" value="&amp;nbsp;cin &amp;gt;&amp;gt; drink;" style="shape=parallelogram;perimeter=parallelogramPerimeter;whiteSpace=wrap;html=1;fixedSize=1;" vertex="1" parent="1">
          <mxGeometry x="450" y="-2740" width="100" height="30" as="geometry" />
        </mxCell>
        <mxCell id="61yUi6WZkmLRr9ikkD7M-36" style="edgeStyle=orthogonalEdgeStyle;rounded=0;orthogonalLoop=1;jettySize=auto;html=1;" edge="1" parent="1" source="61yUi6WZkmLRr9ikkD7M-37" target="61yUi6WZkmLRr9ikkD7M-39">
          <mxGeometry relative="1" as="geometry">
            <mxPoint x="500" y="-2640" as="targetPoint" />
          </mxGeometry>
        </mxCell>
        <mxCell id="61yUi6WZkmLRr9ikkD7M-37" value="all_drinks[count++] = drink" style="rounded=0;whiteSpace=wrap;html=1;" vertex="1" parent="1">
          <mxGeometry x="440" y="-2690" width="120" height="30" as="geometry" />
        </mxCell>
        <mxCell id="61yUi6WZkmLRr9ikkD7M-38" style="edgeStyle=orthogonalEdgeStyle;rounded=0;orthogonalLoop=1;jettySize=auto;html=1;" edge="1" parent="1" source="61yUi6WZkmLRr9ikkD7M-39">
          <mxGeometry relative="1" as="geometry">
            <mxPoint x="570" y="-2790" as="targetPoint" />
            <Array as="points">
              <mxPoint x="420" y="-2625" />
              <mxPoint x="420" y="-2790" />
            </Array>
          </mxGeometry>
        </mxCell>
        <mxCell id="61yUi6WZkmLRr9ikkD7M-39" value="i++" style="rounded=0;whiteSpace=wrap;html=1;" vertex="1" parent="1">
          <mxGeometry x="460" y="-2640" width="80" height="30" as="geometry" />
        </mxCell>
        <mxCell id="61yUi6WZkmLRr9ikkD7M-56" style="edgeStyle=orthogonalEdgeStyle;rounded=0;orthogonalLoop=1;jettySize=auto;html=1;entryX=0.5;entryY=0;entryDx=0;entryDy=0;exitX=0.5;exitY=1;exitDx=0;exitDy=0;" edge="1" parent="1" source="61yUi6WZkmLRr9ikkD7M-41" target="61yUi6WZkmLRr9ikkD7M-46">
          <mxGeometry relative="1" as="geometry">
            <Array as="points">
              <mxPoint x="650" y="-2660" />
              <mxPoint x="720" y="-2660" />
              <mxPoint x="720" y="-3180" />
              <mxPoint x="880" y="-3180" />
            </Array>
          </mxGeometry>
        </mxCell>
        <mxCell id="61yUi6WZkmLRr9ikkD7M-41" value="&lt;div&gt;int unique_count = 0;&lt;/div&gt;&lt;div&gt;&amp;nbsp; &amp;nbsp; bool is_unique;&lt;/div&gt;" style="rounded=0;whiteSpace=wrap;html=1;" vertex="1" parent="1">
          <mxGeometry x="590.04" y="-2730" width="120" height="40" as="geometry" />
        </mxCell>
        <mxCell id="61yUi6WZkmLRr9ikkD7M-45" style="edgeStyle=orthogonalEdgeStyle;rounded=0;orthogonalLoop=1;jettySize=auto;html=1;" edge="1" parent="1" source="61yUi6WZkmLRr9ikkD7M-46" target="61yUi6WZkmLRr9ikkD7M-49">
          <mxGeometry relative="1" as="geometry">
            <mxPoint x="880" y="-3110" as="targetPoint" />
          </mxGeometry>
        </mxCell>
        <mxCell id="61yUi6WZkmLRr9ikkD7M-46" value="int i = 0" style="rounded=0;whiteSpace=wrap;html=1;" vertex="1" parent="1">
          <mxGeometry x="835" y="-3160" width="90" height="30" as="geometry" />
        </mxCell>
        <mxCell id="61yUi6WZkmLRr9ikkD7M-47" style="edgeStyle=orthogonalEdgeStyle;rounded=0;orthogonalLoop=1;jettySize=auto;html=1;exitX=0;exitY=0.5;exitDx=0;exitDy=0;" edge="1" parent="1">
          <mxGeometry relative="1" as="geometry">
            <mxPoint x="808.0434782608697" y="-3070" as="targetPoint" />
            <mxPoint x="838" y="-3090" as="sourcePoint" />
          </mxGeometry>
        </mxCell>
        <mxCell id="61yUi6WZkmLRr9ikkD7M-48" value="True" style="edgeLabel;html=1;align=center;verticalAlign=middle;resizable=0;points=[];" vertex="1" connectable="0" parent="61yUi6WZkmLRr9ikkD7M-47">
          <mxGeometry x="-0.62" y="-2" relative="1" as="geometry">
            <mxPoint x="-1" y="2" as="offset" />
          </mxGeometry>
        </mxCell>
        <mxCell id="61yUi6WZkmLRr9ikkD7M-103" style="edgeStyle=orthogonalEdgeStyle;rounded=0;orthogonalLoop=1;jettySize=auto;html=1;" edge="1" parent="1" source="61yUi6WZkmLRr9ikkD7M-49" target="61yUi6WZkmLRr9ikkD7M-108">
          <mxGeometry relative="1" as="geometry">
            <mxPoint x="1240" y="-3030" as="targetPoint" />
          </mxGeometry>
        </mxCell>
        <mxCell id="61yUi6WZkmLRr9ikkD7M-104" value="False" style="edgeLabel;html=1;align=center;verticalAlign=middle;resizable=0;points=[];" vertex="1" connectable="0" parent="61yUi6WZkmLRr9ikkD7M-103">
          <mxGeometry x="-0.7535" y="-2" relative="1" as="geometry">
            <mxPoint as="offset" />
          </mxGeometry>
        </mxCell>
        <mxCell id="61yUi6WZkmLRr9ikkD7M-49" value="i &amp;lt; count" style="rhombus;whiteSpace=wrap;html=1;" vertex="1" parent="1">
          <mxGeometry x="840" y="-3110" width="80" height="40" as="geometry" />
        </mxCell>
        <mxCell id="61yUi6WZkmLRr9ikkD7M-62" style="edgeStyle=orthogonalEdgeStyle;rounded=0;orthogonalLoop=1;jettySize=auto;html=1;exitX=0.5;exitY=1;exitDx=0;exitDy=0;entryX=0.5;entryY=0;entryDx=0;entryDy=0;" edge="1" parent="1">
          <mxGeometry relative="1" as="geometry">
            <mxPoint x="808" y="-3050" as="sourcePoint" />
            <mxPoint x="808" y="-3030" as="targetPoint" />
          </mxGeometry>
        </mxCell>
        <mxCell id="61yUi6WZkmLRr9ikkD7M-57" value="is_unique = true" style="rounded=0;whiteSpace=wrap;html=1;" vertex="1" parent="1">
          <mxGeometry x="765" y="-3070" width="90" height="20" as="geometry" />
        </mxCell>
        <mxCell id="61yUi6WZkmLRr9ikkD7M-58" style="edgeStyle=orthogonalEdgeStyle;rounded=0;orthogonalLoop=1;jettySize=auto;html=1;" edge="1" parent="1" source="61yUi6WZkmLRr9ikkD7M-59" target="61yUi6WZkmLRr9ikkD7M-61">
          <mxGeometry relative="1" as="geometry">
            <mxPoint x="810" y="-2980" as="targetPoint" />
            <Array as="points">
              <mxPoint x="805" y="-2990" />
              <mxPoint x="805" y="-2990" />
            </Array>
          </mxGeometry>
        </mxCell>
        <mxCell id="61yUi6WZkmLRr9ikkD7M-59" value="int j = 0" style="rounded=0;whiteSpace=wrap;html=1;" vertex="1" parent="1">
          <mxGeometry x="765" y="-3030" width="90" height="30" as="geometry" />
        </mxCell>
        <mxCell id="61yUi6WZkmLRr9ikkD7M-68" style="edgeStyle=orthogonalEdgeStyle;rounded=0;orthogonalLoop=1;jettySize=auto;html=1;" edge="1" parent="1" source="61yUi6WZkmLRr9ikkD7M-61" target="61yUi6WZkmLRr9ikkD7M-69">
          <mxGeometry relative="1" as="geometry">
            <mxPoint x="940" y="-2950" as="targetPoint" />
            <Array as="points">
              <mxPoint x="950" y="-2960" />
            </Array>
          </mxGeometry>
        </mxCell>
        <mxCell id="61yUi6WZkmLRr9ikkD7M-98" value="True" style="edgeLabel;html=1;align=center;verticalAlign=middle;resizable=0;points=[];" vertex="1" connectable="0" parent="61yUi6WZkmLRr9ikkD7M-68">
          <mxGeometry x="-0.3132" relative="1" as="geometry">
            <mxPoint as="offset" />
          </mxGeometry>
        </mxCell>
        <mxCell id="61yUi6WZkmLRr9ikkD7M-99" style="edgeStyle=orthogonalEdgeStyle;rounded=0;orthogonalLoop=1;jettySize=auto;html=1;entryX=0.5;entryY=0;entryDx=0;entryDy=0;" edge="1" parent="1" source="61yUi6WZkmLRr9ikkD7M-61" target="61yUi6WZkmLRr9ikkD7M-94">
          <mxGeometry relative="1" as="geometry">
            <Array as="points">
              <mxPoint x="750" y="-2960" />
              <mxPoint x="750" y="-2680" />
              <mxPoint x="965" y="-2680" />
            </Array>
          </mxGeometry>
        </mxCell>
        <mxCell id="61yUi6WZkmLRr9ikkD7M-101" value="False" style="edgeLabel;html=1;align=center;verticalAlign=middle;resizable=0;points=[];" vertex="1" connectable="0" parent="61yUi6WZkmLRr9ikkD7M-99">
          <mxGeometry x="-0.7396" y="1" relative="1" as="geometry">
            <mxPoint as="offset" />
          </mxGeometry>
        </mxCell>
        <mxCell id="61yUi6WZkmLRr9ikkD7M-61" value="j &amp;lt; i" style="rhombus;whiteSpace=wrap;html=1;" vertex="1" parent="1">
          <mxGeometry x="765" y="-2980" width="80" height="40" as="geometry" />
        </mxCell>
        <mxCell id="61yUi6WZkmLRr9ikkD7M-70" style="edgeStyle=orthogonalEdgeStyle;rounded=0;orthogonalLoop=1;jettySize=auto;html=1;exitX=0;exitY=0.5;exitDx=0;exitDy=0;" edge="1" parent="1" source="61yUi6WZkmLRr9ikkD7M-69" target="61yUi6WZkmLRr9ikkD7M-72">
          <mxGeometry relative="1" as="geometry">
            <mxPoint x="880" y="-2890" as="targetPoint" />
          </mxGeometry>
        </mxCell>
        <mxCell id="61yUi6WZkmLRr9ikkD7M-75" value="True" style="edgeLabel;html=1;align=center;verticalAlign=middle;resizable=0;points=[];" vertex="1" connectable="0" parent="61yUi6WZkmLRr9ikkD7M-70">
          <mxGeometry x="0.0746" y="-1" relative="1" as="geometry">
            <mxPoint as="offset" />
          </mxGeometry>
        </mxCell>
        <mxCell id="61yUi6WZkmLRr9ikkD7M-76" style="edgeStyle=orthogonalEdgeStyle;rounded=0;orthogonalLoop=1;jettySize=auto;html=1;entryX=0.5;entryY=0;entryDx=0;entryDy=0;exitX=1;exitY=0.5;exitDx=0;exitDy=0;" edge="1" parent="1" source="61yUi6WZkmLRr9ikkD7M-69" target="61yUi6WZkmLRr9ikkD7M-86">
          <mxGeometry relative="1" as="geometry">
            <mxPoint x="1020" y="-2830" as="targetPoint" />
          </mxGeometry>
        </mxCell>
        <mxCell id="61yUi6WZkmLRr9ikkD7M-77" value="False" style="edgeLabel;html=1;align=center;verticalAlign=middle;resizable=0;points=[];" vertex="1" connectable="0" parent="61yUi6WZkmLRr9ikkD7M-76">
          <mxGeometry x="-0.8388" y="-1" relative="1" as="geometry">
            <mxPoint x="15" y="7" as="offset" />
          </mxGeometry>
        </mxCell>
        <mxCell id="61yUi6WZkmLRr9ikkD7M-69" value="all_drinks[i] == all_drinks[j]" style="rhombus;whiteSpace=wrap;html=1;" vertex="1" parent="1">
          <mxGeometry x="900" y="-2945" width="100" height="55" as="geometry" />
        </mxCell>
        <mxCell id="61yUi6WZkmLRr9ikkD7M-74" value="" style="edgeStyle=orthogonalEdgeStyle;rounded=0;orthogonalLoop=1;jettySize=auto;html=1;" edge="1" parent="1" source="61yUi6WZkmLRr9ikkD7M-72" target="61yUi6WZkmLRr9ikkD7M-73">
          <mxGeometry relative="1" as="geometry" />
        </mxCell>
        <mxCell id="61yUi6WZkmLRr9ikkD7M-72" value="is_unique = false" style="rounded=0;whiteSpace=wrap;html=1;" vertex="1" parent="1">
          <mxGeometry x="840" y="-2885" width="80" height="30" as="geometry" />
        </mxCell>
        <mxCell id="61yUi6WZkmLRr9ikkD7M-79" style="edgeStyle=orthogonalEdgeStyle;rounded=0;orthogonalLoop=1;jettySize=auto;html=1;" edge="1" parent="1" source="61yUi6WZkmLRr9ikkD7M-73">
          <mxGeometry relative="1" as="geometry">
            <mxPoint x="880" y="-2780" as="targetPoint" />
          </mxGeometry>
        </mxCell>
        <mxCell id="61yUi6WZkmLRr9ikkD7M-73" value="&amp;nbsp;break;" style="rounded=0;whiteSpace=wrap;html=1;" vertex="1" parent="1">
          <mxGeometry x="840" y="-2830" width="80" height="30" as="geometry" />
        </mxCell>
        <mxCell id="61yUi6WZkmLRr9ikkD7M-87" style="edgeStyle=orthogonalEdgeStyle;rounded=0;orthogonalLoop=1;jettySize=auto;html=1;exitX=0.5;exitY=1;exitDx=0;exitDy=0;" edge="1" parent="1">
          <mxGeometry relative="1" as="geometry">
            <mxPoint x="1024" y="-2855.5" as="sourcePoint" />
            <mxPoint x="804" y="-2995.5" as="targetPoint" />
            <Array as="points">
              <mxPoint x="1024" y="-2835.5" />
              <mxPoint x="1084" y="-2835.5" />
              <mxPoint x="1084" y="-2995.5" />
              <mxPoint x="814" y="-2995.5" />
            </Array>
          </mxGeometry>
        </mxCell>
        <mxCell id="61yUi6WZkmLRr9ikkD7M-86" value="j++" style="rounded=0;whiteSpace=wrap;html=1;" vertex="1" parent="1">
          <mxGeometry x="980" y="-2880" width="80" height="30" as="geometry" />
        </mxCell>
        <mxCell id="61yUi6WZkmLRr9ikkD7M-89" style="edgeStyle=orthogonalEdgeStyle;rounded=0;orthogonalLoop=1;jettySize=auto;html=1;" edge="1" parent="1" source="61yUi6WZkmLRr9ikkD7M-88" target="61yUi6WZkmLRr9ikkD7M-90">
          <mxGeometry relative="1" as="geometry">
            <mxPoint x="800" y="-2730" as="targetPoint" />
            <Array as="points">
              <mxPoint x="810" y="-2760" />
            </Array>
          </mxGeometry>
        </mxCell>
        <mxCell id="61yUi6WZkmLRr9ikkD7M-92" value="True" style="edgeLabel;html=1;align=center;verticalAlign=middle;resizable=0;points=[];" vertex="1" connectable="0" parent="61yUi6WZkmLRr9ikkD7M-89">
          <mxGeometry x="-0.0728" relative="1" as="geometry">
            <mxPoint as="offset" />
          </mxGeometry>
        </mxCell>
        <mxCell id="61yUi6WZkmLRr9ikkD7M-93" style="edgeStyle=orthogonalEdgeStyle;rounded=0;orthogonalLoop=1;jettySize=auto;html=1;exitX=1;exitY=0.5;exitDx=0;exitDy=0;" edge="1" parent="1" source="61yUi6WZkmLRr9ikkD7M-88" target="61yUi6WZkmLRr9ikkD7M-94">
          <mxGeometry relative="1" as="geometry">
            <mxPoint x="960" y="-2690" as="targetPoint" />
          </mxGeometry>
        </mxCell>
        <mxCell id="61yUi6WZkmLRr9ikkD7M-96" value="False" style="edgeLabel;html=1;align=center;verticalAlign=middle;resizable=0;points=[];" vertex="1" connectable="0" parent="61yUi6WZkmLRr9ikkD7M-93">
          <mxGeometry x="-0.0809" relative="1" as="geometry">
            <mxPoint as="offset" />
          </mxGeometry>
        </mxCell>
        <mxCell id="61yUi6WZkmLRr9ikkD7M-88" value="is_unique == true" style="rhombus;whiteSpace=wrap;html=1;" vertex="1" parent="1">
          <mxGeometry x="825" y="-2780" width="110" height="40" as="geometry" />
        </mxCell>
        <mxCell id="61yUi6WZkmLRr9ikkD7M-95" style="edgeStyle=orthogonalEdgeStyle;rounded=0;orthogonalLoop=1;jettySize=auto;html=1;entryX=0.5;entryY=0;entryDx=0;entryDy=0;exitX=0.5;exitY=1;exitDx=0;exitDy=0;" edge="1" parent="1" source="61yUi6WZkmLRr9ikkD7M-90" target="61yUi6WZkmLRr9ikkD7M-94">
          <mxGeometry relative="1" as="geometry">
            <Array as="points">
              <mxPoint x="810" y="-2680" />
            </Array>
          </mxGeometry>
        </mxCell>
        <mxCell id="61yUi6WZkmLRr9ikkD7M-90" value="unique_count++" style="rounded=0;whiteSpace=wrap;html=1;" vertex="1" parent="1">
          <mxGeometry x="767.5" y="-2720" width="85" height="20" as="geometry" />
        </mxCell>
        <mxCell id="61yUi6WZkmLRr9ikkD7M-102" style="edgeStyle=orthogonalEdgeStyle;rounded=0;orthogonalLoop=1;jettySize=auto;html=1;" edge="1" parent="1" source="61yUi6WZkmLRr9ikkD7M-94">
          <mxGeometry relative="1" as="geometry">
            <mxPoint x="880" y="-3120" as="targetPoint" />
            <Array as="points">
              <mxPoint x="1150" y="-2650" />
              <mxPoint x="1150" y="-3120" />
              <mxPoint x="925" y="-3120" />
            </Array>
          </mxGeometry>
        </mxCell>
        <mxCell id="61yUi6WZkmLRr9ikkD7M-94" value="i++" style="rounded=0;whiteSpace=wrap;html=1;" vertex="1" parent="1">
          <mxGeometry x="930" y="-2660" width="70" height="20" as="geometry" />
        </mxCell>
        <mxCell id="61yUi6WZkmLRr9ikkD7M-109" style="edgeStyle=orthogonalEdgeStyle;rounded=0;orthogonalLoop=1;jettySize=auto;html=1;" edge="1" parent="1" source="61yUi6WZkmLRr9ikkD7M-108" target="61yUi6WZkmLRr9ikkD7M-110">
          <mxGeometry relative="1" as="geometry">
            <mxPoint x="1235" y="-3010" as="targetPoint" />
          </mxGeometry>
        </mxCell>
        <mxCell id="61yUi6WZkmLRr9ikkD7M-108" value="cout &amp;lt;&amp;lt; unique_count" style="shape=parallelogram;perimeter=parallelogramPerimeter;whiteSpace=wrap;html=1;fixedSize=1;" vertex="1" parent="1">
          <mxGeometry x="1160" y="-3060" width="150" height="30" as="geometry" />
        </mxCell>
        <mxCell id="61yUi6WZkmLRr9ikkD7M-111" style="edgeStyle=orthogonalEdgeStyle;rounded=0;orthogonalLoop=1;jettySize=auto;html=1;" edge="1" parent="1" source="61yUi6WZkmLRr9ikkD7M-110" target="61yUi6WZkmLRr9ikkD7M-112">
          <mxGeometry relative="1" as="geometry">
            <mxPoint x="1235" y="-2950" as="targetPoint" />
          </mxGeometry>
        </mxCell>
        <mxCell id="61yUi6WZkmLRr9ikkD7M-110" value="delete[] all_drinks" style="rounded=0;whiteSpace=wrap;html=1;" vertex="1" parent="1">
          <mxGeometry x="1175" y="-3010" width="120" height="30" as="geometry" />
        </mxCell>
        <mxCell id="61yUi6WZkmLRr9ikkD7M-112" value="End" style="ellipse;whiteSpace=wrap;html=1;" vertex="1" parent="1">
          <mxGeometry x="1187.5" y="-2960" width="95" height="30" as="geometry" />
        </mxCell>
      </root>
    </mxGraphModel>
  </diagram>
</mxfile>
